<?xml version="1.0" standalone="no"?>
<svg width="64" height="64" viewBox="0 0 512 384" version="1.1" xmlns="http://www.w3.org/2000/svg">
  <path d="M426 308c13 -1 23 -12 22 -24l-14 -263c-1 -13 -12 -22 -25 -21l-330 16c-13 1 -23 10 -22 23l2 46l-15 -1c-12 -1 -22 7 -23 18l-21 236c-1 11 7 21 19 22l296 24c12 1 22 -7 23 -18l5 -54zM71 302c1 12 11 22 24 22l219 -11l-2 31h-1v1c-1 5 -5 8 -10 8l-261 -22 c-5 0 -10 -4 -10 -9v0v-1l16 -178l18 25zM405 66l10 198v1v0c0 6 -5 10 -11 10l-58 3l-29 2l-204 9c-6 0 -11 -4 -12 -9v0v-1l-3 -63l-7 -128v-7l6 7l102 109c4 4 8 6 14 6s11 -3 14 -7l43 -49l3 -3c2 -2 6 -4 10 -4s5 1 9 3l17 12c4 3 7 4 11 4s9 -2 11 -5l27 -33zM341 186 c-20 0 -35 15 -35 35s16 35 35 35c20 0 35 -16 35 -35s-16 -35 -35 -35z" transform="matrix(1,0,0,-1,0,384)"/>
</svg>