<?xml version="1.0" standalone="no"?>
<svg width="64" height="64" viewBox="0 0 384 384" version="1.1" xmlns="http://www.w3.org/2000/svg">
  <path d="M384 336v-289c0 -26 -22 -47 -48 -47h-288c-26 0 -48 21 -48 47v289c0 26 22 48 48 48h288c26 0 48 -22 48 -48zM192 272c-44 0 -80 -36 -80 -80s36 -80 80 -80s80 36 80 80s-36 80 -80 80zM352 288v48c0 9 -7 16 -16 16h-48c-9 0 -16 -7 -16 -16v-48c0 -9 7 -16 16 -16 h48c9 0 16 7 16 16zM337 32c9 0 15 7 15 16v176h-52c3 -10 4 -21 4 -32c0 -30 -11 -58 -32 -79s-50 -33 -80 -33s-58 12 -79 33s-33 49 -33 79c0 11 2 22 5 32h-53v-176c0 -9 8 -16 17 -16h288z" transform="matrix(1,0,0,-1,0,384)"/>
</svg>