<?xml version="1.0" standalone="no"?>
<svg width="64" height="64" viewBox="0 0 256 384" version="1.1" xmlns="http://www.w3.org/2000/svg">
  <path d="M193 52c21 0 42 6 63 20v-65c-18 -8 -34 -15 -48 -18s-28 -5 -45 -5c-19 0 -35 2 -50 7c-14 5 -28 12 -38 21s-17 18 -21 28s-6 25 -6 44v140h-48v58c16 5 30 14 42 24s19 21 26 35s11 37 14 59h62v-112h96v-64h-96v-101c0 -24 1 -40 4 -47c2 -7 7 -12 14 -16 c9 -6 19 -8 31 -8zM240 17v29c-15 -6 -31 -10 -47 -10c-15 0 -28 3 -40 10c-10 6 -17 15 -21 25c-2 6 -4 17 -4 52v117h96v32h-96v112h-32c-2 -16 -7 -36 -14 -50c-8 -16 -17 -29 -30 -40c-11 -9 -23 -17 -36 -23v-31h48v-156c0 -21 2 -32 4 -38c3 -8 10 -15 18 -22 c9 -8 19 -14 31 -18c13 -4 29 -6 46 -6c16 0 28 2 41 5c11 2 23 6 36 12z" transform="matrix(1,0,0,-1,0,384)"/>
</svg>